<?xml version="1.0" standalone="no"?>
<!DOCTYPE svg PUBLIC "-//W3C//DTD SVG 20010904//EN"
 "http://www.w3.org/TR/2001/REC-SVG-20010904/DTD/svg10.dtd">
<svg version="1.0" xmlns="http://www.w3.org/2000/svg"
 width="1280.000000pt" height="640.000000pt" viewBox="0 0 1280.000000 640.000000"
 preserveAspectRatio="xMidYMid meet">
<metadata>
Created by potrace 1.15, written by Peter Selinger 2001-2017
</metadata>
<g transform="translate(0.000000,640.000000) scale(0.100000,-0.100000)"
fill="#fff" stroke="none">
<path d="M4190 6014 c-1167 -40 -1950 -173 -2476 -419 -75 -35 -157 -61 -339
-106 -132 -33 -242 -62 -244 -65 -2 -2 17 -36 43 -74 l47 -71 -129 -147 c-329
-377 -596 -716 -763 -970 -109 -164 -127 -206 -140 -319 -13 -106 -17 -535 -9
-833 l5 -185 -93 -60 -93 -60 5 -75 c2 -45 14 -103 30 -145 18 -49 37 -155 66
-360 23 -159 50 -330 61 -380 11 -49 26 -134 34 -188 14 -90 37 -158 68 -198
10 -13 47 -17 222 -22 226 -7 451 -23 858 -62 143 -14 261 -25 263 -25 2 0 4
16 4 35 0 30 3 35 23 35 37 0 46 -13 71 -96 124 -413 400 -705 764 -806 104
-29 344 -32 442 -5 81 22 205 75 276 119 93 56 215 169 289 266 46 61 85 102
115 119 60 36 125 85 183 140 30 29 51 42 56 35 4 -8 647 -8 2306 -2 1265 5
2618 9 3008 10 l707 0 0 41 0 40 43 -26 c23 -15 79 -44 123 -66 68 -32 88 -48
125 -96 126 -168 320 -309 509 -369 397 -128 829 38 1095 421 39 54 43 58 128
86 112 37 144 54 152 79 8 24 21 26 29 5 21 -56 289 56 473 198 64 49 143 130
163 166 18 34 4 82 -36 130 l-36 42 23 62 c12 34 46 100 74 147 l52 85 12 136
c6 75 14 199 17 275 6 135 6 140 -17 173 -14 21 -52 50 -93 72 l-70 38 -3 151
c-4 186 -32 355 -72 444 -35 77 -72 107 -241 195 -361 187 -915 349 -1665 486
-272 50 -767 123 -1045 154 -283 32 -192 -17 -1442 788 -1169 753 -1266 810
-1513 890 -304 99 -388 111 -1045 149 -245 14 -1176 26 -1400 18z m930 -134
c441 -16 972 -63 1020 -90 10 -6 3 -8 -20 -4 -210 28 -1122 42 -1580 25 -331
-12 -745 -35 -988 -55 -84 -6 -155 -10 -157 -7 -3 2 -5 23 -5 46 l0 42 48 6
c298 38 1134 56 1682 37z m-1984 -102 c-4 -18 -12 -38 -19 -45 -8 -8 -91 -21
-222 -33 -116 -11 -244 -25 -285 -30 -41 -5 -76 -7 -78 -5 -5 5 168 59 253 80
83 19 312 63 339 64 16 1 18 -4 12 -31z m2104 -257 c0 -17 106 -1156 129
-1381 4 -47 6 -88 2 -91 -6 -5 -753 4 -1327 17 l-302 6 -16 87 c-49 271 -113
801 -159 1307 -3 32 -2 32 53 38 47 5 407 20 685 29 44 2 272 4 508 5 417 2
427 2 427 -17z m1189 -11 c228 -33 452 -98 601 -174 84 -42 304 -173 495 -294
127 -80 529 -351 589 -397 22 -17 15 -31 -21 -38 -16 -3 -36 -12 -45 -19 -30
-22 -41 -118 -34 -285 8 -170 3 -189 -66 -266 l-33 -37 -929 17 -929 18 -213
750 c-117 413 -213 752 -214 754 0 2 151 1 336 -3 244 -5 371 -12 463 -26z
m-2979 -37 c0 -29 47 -493 70 -688 25 -213 65 -499 85 -609 8 -43 15 -84 15
-92 0 -16 -78 -18 -434 -7 l-227 6 7 31 c69 332 235 908 361 1254 l45 122 39
0 c30 0 39 -4 39 -17z m-516 -60 c-101 -242 -346 -981 -424 -1282 l-12 -44
-816 7 c-449 5 -819 10 -821 12 -2 2 20 73 49 157 49 144 59 163 143 283 128
182 264 350 350 430 118 110 361 244 564 313 82 27 225 56 468 96 125 20 451
63 488 64 l27 1 -16 -37z"/>
</g>
</svg>
